<mxfile host="app.diagrams.net" agent="Mozilla/5.0 (Windows NT 10.0; Win64; x64) AppleWebKit/537.36 (KHTML, like Gecko) Chrome/131.0.0.0 Safari/537.36" version="25.0.3">
  <diagram name="Page-1" id="ncddZihTLWJMlfTjUSpS">
    <mxGraphModel dx="728" dy="390" grid="1" gridSize="10" guides="1" tooltips="1" connect="1" arrows="1" fold="1" page="1" pageScale="1" pageWidth="850" pageHeight="1100" math="0" shadow="0">
      <root>
        <mxCell id="0" />
        <mxCell id="1" parent="0" />
        <mxCell id="UbkMghXz4nUbj46d38Ch-2" style="edgeStyle=orthogonalEdgeStyle;rounded=0;orthogonalLoop=1;jettySize=auto;html=1;" parent="1" source="UbkMghXz4nUbj46d38Ch-1" edge="1">
          <mxGeometry relative="1" as="geometry">
            <mxPoint x="260" y="230" as="targetPoint" />
          </mxGeometry>
        </mxCell>
        <mxCell id="UbkMghXz4nUbj46d38Ch-1" value="Nháº­p n" style="strokeWidth=2;html=1;shape=mxgraph.flowchart.start_1;whiteSpace=wrap;" parent="1" vertex="1">
          <mxGeometry x="40" y="200" width="120" height="60" as="geometry" />
        </mxCell>
        <mxCell id="UbkMghXz4nUbj46d38Ch-4" style="edgeStyle=orthogonalEdgeStyle;rounded=0;orthogonalLoop=1;jettySize=auto;html=1;" parent="1" source="UbkMghXz4nUbj46d38Ch-3" edge="1">
          <mxGeometry relative="1" as="geometry">
            <mxPoint x="470" y="230" as="targetPoint" />
          </mxGeometry>
        </mxCell>
        <mxCell id="UbkMghXz4nUbj46d38Ch-7" style="edgeStyle=orthogonalEdgeStyle;rounded=0;orthogonalLoop=1;jettySize=auto;html=1;" parent="1" source="UbkMghXz4nUbj46d38Ch-3" target="UbkMghXz4nUbj46d38Ch-8" edge="1">
          <mxGeometry relative="1" as="geometry">
            <mxPoint x="470" y="120" as="targetPoint" />
            <Array as="points">
              <mxPoint x="310" y="120" />
              <mxPoint x="311" y="120" />
            </Array>
          </mxGeometry>
        </mxCell>
        <mxCell id="UbkMghXz4nUbj46d38Ch-3" value="n % 2 ==0" style="strokeWidth=2;html=1;shape=mxgraph.flowchart.decision;whiteSpace=wrap;" parent="1" vertex="1">
          <mxGeometry x="260" y="178" width="100" height="100" as="geometry" />
        </mxCell>
        <mxCell id="UbkMghXz4nUbj46d38Ch-5" value="n la so chan" style="strokeWidth=2;html=1;shape=mxgraph.flowchart.display;whiteSpace=wrap;" parent="1" vertex="1">
          <mxGeometry x="470" y="200" width="110" height="60" as="geometry" />
        </mxCell>
        <mxCell id="UbkMghXz4nUbj46d38Ch-6" value="true" style="text;html=1;align=center;verticalAlign=middle;resizable=0;points=[];autosize=1;strokeColor=none;fillColor=none;" parent="1" vertex="1">
          <mxGeometry x="360" y="198" width="40" height="30" as="geometry" />
        </mxCell>
        <mxCell id="UbkMghXz4nUbj46d38Ch-12" style="edgeStyle=orthogonalEdgeStyle;rounded=0;orthogonalLoop=1;jettySize=auto;html=1;entryX=0.5;entryY=0;entryDx=0;entryDy=0;entryPerimeter=0;" parent="1" source="UbkMghXz4nUbj46d38Ch-8" target="UbkMghXz4nUbj46d38Ch-10" edge="1">
          <mxGeometry relative="1" as="geometry">
            <mxPoint x="720" y="120" as="targetPoint" />
          </mxGeometry>
        </mxCell>
        <mxCell id="UbkMghXz4nUbj46d38Ch-8" value="n ko la so chan" style="strokeWidth=2;html=1;shape=mxgraph.flowchart.display;whiteSpace=wrap;" parent="1" vertex="1">
          <mxGeometry x="470" y="90" width="100" height="60" as="geometry" />
        </mxCell>
        <mxCell id="UbkMghXz4nUbj46d38Ch-9" value="false" style="text;html=1;align=center;verticalAlign=middle;resizable=0;points=[];autosize=1;strokeColor=none;fillColor=none;" parent="1" vertex="1">
          <mxGeometry x="345" y="88" width="50" height="30" as="geometry" />
        </mxCell>
        <mxCell id="UbkMghXz4nUbj46d38Ch-10" value="end" style="strokeWidth=2;html=1;shape=mxgraph.flowchart.start_1;whiteSpace=wrap;" parent="1" vertex="1">
          <mxGeometry x="660" y="198" width="120" height="60" as="geometry" />
        </mxCell>
        <mxCell id="UbkMghXz4nUbj46d38Ch-11" style="edgeStyle=orthogonalEdgeStyle;rounded=0;orthogonalLoop=1;jettySize=auto;html=1;entryX=0.083;entryY=0.533;entryDx=0;entryDy=0;entryPerimeter=0;" parent="1" source="UbkMghXz4nUbj46d38Ch-5" target="UbkMghXz4nUbj46d38Ch-10" edge="1">
          <mxGeometry relative="1" as="geometry" />
        </mxCell>
        <mxCell id="tuCBu0ls0KZvBoLfCwvb-1" value="scanf n" style="shape=parallelogram;html=1;strokeWidth=2;perimeter=parallelogramPerimeter;whiteSpace=wrap;rounded=1;arcSize=12;size=0.23;" vertex="1" parent="1">
          <mxGeometry x="170" y="208" width="80" height="40" as="geometry" />
        </mxCell>
      </root>
    </mxGraphModel>
  </diagram>
</mxfile>
